<svg xmlns="http://www.w3.org/2000/svg" aria-hidden="true" style="position:absolute;width:0;height:0;overflow:hidden">
  <defs>
    <symbol id="mapPointer" viewBox="0 0 13 16">
      <path fill="#121212" d="M12.952 6.545c0 5.091-6.476 9.455-6.476 9.455S0 11.636 0 6.545c0-1.736.682-3.401 1.897-4.628S4.759 0 6.476 0c1.718 0 3.365.69 4.579 1.917s1.897 2.892 1.897 4.628z" style="fill:var(--color1, #121212)"/>
      <path fill="#f7f7f7" d="M6.476 8.727c1.192 0 2.159-.977 2.159-2.182s-.966-2.182-2.159-2.182c-1.192 0-2.159.977-2.159 2.182s.966 2.182 2.159 2.182z" style="fill:var(--color2, #f7f7f7)"/>
    </symbol>
    <symbol id="facebook" viewBox="0 0 16 16">
      <path stroke-linecap="round" stroke-linejoin="round" d="M12 1.333h-2a3.333 3.333 0 0 0-3.333 3.333v2h-2v2.667h2v5.333h2.667V9.333h2l.667-2.667H9.334v-2A.665.665 0 0 1 10 4h2V1.333z"/>
    </symbol>
    <symbol id="instagram" viewBox="0 0 16 16">
      <path stroke-linecap="round" stroke-linejoin="round" d="M11.333 1.333H4.666a3.333 3.333 0 0 0-3.333 3.333v6.667a3.333 3.333 0 0 0 3.333 3.333h6.667a3.333 3.333 0 0 0 3.333-3.333V4.666a3.333 3.333 0 0 0-3.333-3.333z"/>
      <path stroke-linecap="round" stroke-linejoin="round" d="M10.667 7.58a2.663 2.663 0 0 1-1.439 2.773 2.67 2.67 0 0 1-3.085-.496 2.67 2.67 0 0 1 .658-4.253 2.67 2.67 0 0 1 3.113.481c.404.404.668.928.752 1.494zM11.667 4.333h.008"/>
    </symbol>
    <symbol id="twitter" viewBox="0 0 16 16">
      <path stroke-linecap="round" stroke-linejoin="round" d="M15.333 2a7.262 7.262 0 0 1-2.093 1.02 2.981 2.981 0 0 0-3.319-.83A2.987 2.987 0 0 0 8 5.021v.667a7.108 7.108 0 0 1-6-3.02s-2.667 6 3.333 8.667a7.76 7.76 0 0 1-4.667 1.333c6 3.333 13.333 0 13.333-7.667a3.012 3.012 0 0 0-.053-.553 5.148 5.148 0 0 0 1.387-2.447z"/>
    </symbol>
    <symbol id="chevron-left" viewBox="0 0 16 16">
      <path stroke-linecap="round" stroke-linejoin="round" stroke-width=".889" d="M9.778 11.111 6.667 8l3.111-3.111"/>
    </symbol>
    <symbol id="chevron-right" viewBox="0 0 16 16">
      <path stroke-linecap="round" stroke-linejoin="round" stroke-width=".889" d="M6.222 11.111 9.333 8 6.222 4.889"/>
    </symbol>
    <symbol id="chevron-down" viewBox="0 0 16 16">
      <path stroke-linecap="round" stroke-linejoin="round" stroke-width="1.44" d="m4 6 4 4 4-4"/>
    </symbol>
    <symbol id="x-close" viewBox="0 0 16 16">
      <path stroke-linecap="round" stroke-linejoin="round" stroke-width="1.143" d="m12 4-8 8m0-8 8 8"/>
    </symbol>
    <symbol id="burger" viewBox="0 0 16 16">
      <path stroke-linecap="round" stroke-linejoin="round" d="M2 8h12M2 4h12M2 12h8"/>
    </symbol>
  </defs>
</svg>
